<svg xmlns="http://www.w3.org/2000/svg" width="23.999" height="24" viewBox="4 3 23.999 24"><path fill="#BDBDBD" d="M27.504 14.506h-5.053l2.305-2.092a.495.495 0 0 0-.665-.733l-3.112 2.825h-3.785l3.533-3.533 5.227-.254a.497.497 0 0 0 .471-.519.506.506 0 0 0-.52-.47l-4.137.201 2.717-2.717a.496.496 0 0 0-.699-.7l-2.717 2.718.201-4.139a.494.494 0 1 0-.989-.048l-.256 5.228-3.531 3.531v-3.783l2.824-3.113a.494.494 0 1 0-.732-.664l-2.092 2.305V3.495a.495.495 0 1 0-.989 0v5.054l-2.091-2.305a.494.494 0 1 0-.733.664l2.825 3.113v3.784l-3.532-3.532-.254-5.227a.51.51 0 0 0-.518-.471.494.494 0 0 0-.47.518l.201 4.139-2.719-2.716a.496.496 0 0 0-.7.699l2.716 2.717-4.136-.202a.495.495 0 1 0-.048.989l5.227.254 3.532 3.533h-3.783l-3.113-2.825a.494.494 0 1 0-.665.733l2.305 2.092H4.495a.494.494 0 1 0 0 .988h5.054l-2.305 2.092a.494.494 0 1 0 .665.732l3.112-2.824h3.784l-3.532 3.532-5.228.255a.495.495 0 0 0 .024.99l.024-.001 4.138-.201-2.717 2.717a.494.494 0 1 0 .7.699l2.717-2.717-.201 4.138a.496.496 0 0 0 .47.519h.024a.495.495 0 0 0 .494-.471l.254-5.227 3.532-3.532v3.784l-2.825 3.112a.495.495 0 1 0 .734.665l2.091-2.305v5.055a.496.496 0 0 0 .99 0v-5.055l2.092 2.305a.496.496 0 0 0 .699.034.495.495 0 0 0 .033-.699l-2.824-3.112v-3.783l3.531 3.531.255 5.227a.494.494 0 0 0 .493.471h.025a.498.498 0 0 0 .471-.519l-.201-4.137 2.716 2.716a.491.491 0 0 0 .701 0 .494.494 0 0 0 0-.699l-2.717-2.717 4.137.201h.025a.495.495 0 0 0 .023-.989l-5.227-.254-3.533-3.533h3.785l3.112 2.824a.494.494 0 1 0 .665-.732l-2.305-2.092h5.053a.495.495 0 0 0 .001-.988z"/></svg>